<svg width="67" height="64" viewBox="0 0 67 64" fill="none" xmlns="http://www.w3.org/2000/svg">
<path d="M13.8121 6.04325C3.5 12.5056 -1.99998 25 0.743235 38.109C0.903557 30.3695 5.64001 22.2053 13.7803 17.1039C25.5647 9.71894 40.0168 11.5491 46.0596 21.1915C48.7597 25.5 49.6264 29 47 34.5C54.1231 28 54.5189 18.2604 50.1264 10.6424C43.7318 -0.448085 27.0697 -2.2649 13.8121 6.04325Z" fill="#6465D9"/>
<path d="M54.5189 46.9271C63.5 40.2726 68.5 26 64.8608 13.5885C65.9001 21.6632 61.7981 30.8488 53.6231 36.9061C42.449 45.1856 28.8016 43.2894 23 33.5C19.8338 28.1575 21.6448 21.1915 26.784 18.2604C15.5 22 12.4357 37.716 17.9574 45.1682C25.579 55.4541 41.9481 56.2416 54.5189 46.9271Z" fill="#6465D9"/>
<path d="M12 49C17.9574 58.0073 32 66 46.1754 63.0951C38.0568 63.7025 29.103 59.1166 23.49 50.6303C15.818 39.0307 17.2929 24.538 26.784 18.2604C31.7031 15.0069 40.5 14 46.0596 21.1915C42 11 24.8771 9.45829 17.1411 14.5749C6.46358 21.6373 3.36901 35.9504 12 49Z" fill="#6465D9"/>
</svg>
