<svg width="24" height="24" viewBox="0 0 24 24" fill="none" xmlns="http://www.w3.org/2000/svg">
<g clip-path="url(#clip0_186_3250)">
<path d="M18.3 17.29C18.69 16.9 18.69 16.27 18.3 15.88L14.42 12L18.3 8.12002C18.69 7.73002 18.69 7.10002 18.3 6.71002C17.91 6.32002 17.28 6.32002 16.89 6.71002L12.3 11.3C11.91 11.69 11.91 12.32 12.3 12.71L16.88 17.29C17.27 17.68 17.91 17.68 18.3 17.29Z" fill="black" fill-opacity="0.7"/>
<path d="M11.7101 17.2902C12.1001 16.9002 12.1001 16.2702 11.7101 15.8802L7.83006 12.0002L11.7101 8.12022C12.1001 7.73022 12.1001 7.10022 11.7101 6.71022C11.3201 6.32022 10.6901 6.32022 10.3001 6.71022L5.71006 11.3002C5.32006 11.6902 5.32006 12.3202 5.71006 12.7102L10.3001 17.3002C10.6801 17.6802 11.3201 17.6802 11.7101 17.2902Z" fill="black" fill-opacity="0.7"/>
</g>
<defs>
<clipPath id="clip0_186_3250">
<rect width="24" height="24" fill="white" transform="matrix(-1 0 0 -1 24 24)"/>
</clipPath>
</defs>
</svg>
