<svg width="8" height="14" viewBox="0 0 8 14" fill="none" xmlns="http://www.w3.org/2000/svg">
<path d="M3.05331 11.3868C2.99597 11.4502 2.94254 11.517 2.89331 11.5868C2.84285 11.6612 2.80249 11.7419 2.77331 11.8268C2.73487 11.9024 2.7079 11.9833 2.69331 12.0668C2.68676 12.1556 2.68676 12.2447 2.69331 12.3335C2.6888 12.5084 2.72533 12.6819 2.79998 12.8402C2.85986 13.0056 2.9554 13.1559 3.07982 13.2803C3.20425 13.4047 3.35451 13.5003 3.51998 13.5602C3.67958 13.6307 3.85215 13.6671 4.02664 13.6671C4.20114 13.6671 4.37371 13.6307 4.53331 13.5602C4.69877 13.5003 4.84904 13.4047 4.97346 13.2803C5.09789 13.1559 5.19342 13.0056 5.25331 12.8402C5.31252 12.678 5.33969 12.506 5.33331 12.3335C5.33432 12.158 5.30069 11.9841 5.23434 11.8216C5.16798 11.6592 5.07022 11.5114 4.94664 11.3868C4.82269 11.2619 4.67522 11.1627 4.51274 11.095C4.35026 11.0273 4.17599 10.9924 3.99997 10.9924C3.82396 10.9924 3.64968 11.0273 3.48721 11.095C3.32473 11.1627 3.17726 11.2619 3.05331 11.3868ZM3.99997 0.333497C3.29739 0.333046 2.60709 0.517658 1.99852 0.868754C1.38995 1.21985 0.884598 1.72504 0.533307 2.3335C0.436835 2.48525 0.372059 2.65496 0.342873 2.8324C0.313688 3.00984 0.320697 3.19135 0.363479 3.36601C0.406261 3.54067 0.483933 3.70488 0.591821 3.84874C0.699708 3.99261 0.835582 4.11316 0.991269 4.20316C1.14696 4.29315 1.31924 4.35072 1.49775 4.3724C1.67626 4.39408 1.85732 4.37943 2.03002 4.32933C2.20273 4.27923 2.36351 4.19471 2.5027 4.08086C2.6419 3.967 2.75662 3.82617 2.83997 3.66683C2.95745 3.46336 3.1266 3.29454 3.3303 3.17747C3.53401 3.0604 3.76503 2.99923 3.99997 3.00016C4.3536 3.00016 4.69274 3.14064 4.94278 3.39069C5.19283 3.64074 5.33331 3.97987 5.33331 4.3335C5.33331 4.68712 5.19283 5.02626 4.94278 5.2763C4.69274 5.52635 4.3536 5.66683 3.99997 5.66683C3.64635 5.66683 3.30721 5.80731 3.05717 6.05735C2.80712 6.3074 2.66664 6.64654 2.66664 7.00016V8.3335C2.66664 8.68712 2.80712 9.02626 3.05717 9.2763C3.30721 9.52635 3.64635 9.66683 3.99997 9.66683C4.3536 9.66683 4.69274 9.52635 4.94278 9.2763C5.19283 9.02626 5.33331 8.68712 5.33331 8.3335V8.0935C6.21514 7.77352 6.95645 7.1538 7.42767 6.34265C7.89889 5.53151 8.07003 4.58055 7.91117 3.65602C7.75232 2.73148 7.27358 1.89219 6.55863 1.28485C5.84369 0.677514 4.93803 0.340775 3.99997 0.333497Z" fill="#878787"/>
</svg>
