<svg width="32" height="32" viewBox="0 0 32 32" fill="none" xmlns="http://www.w3.org/2000/svg">
<path d="M5.6 32C4.05333 32 2.73333 31.4533 1.64 30.36C0.546667 29.2667 0 27.9467 0 26.4C0 24.8533 0.546667 23.5333 1.64 22.44C2.73333 21.3467 4.05333 20.8 5.6 20.8C6.08 20.8 6.54667 20.86 7 20.98C7.45333 21.1 7.88 21.2667 8.28 21.48L14.4 15.36V10.96C13.2267 10.6133 12.2667 9.95333 11.52 8.98C10.7733 8.00667 10.4 6.88 10.4 5.6C10.4 4.05333 10.9467 2.73333 12.04 1.64C13.1333 0.546667 14.4533 0 16 0C17.5467 0 18.8667 0.546667 19.96 1.64C21.0533 2.73333 21.6 4.05333 21.6 5.6C21.6 6.88 21.2267 8.00667 20.48 8.98C19.7333 9.95333 18.7733 10.6133 17.6 10.96V15.36L23.76 21.48C24.16 21.2667 24.58 21.1 25.02 20.98C25.46 20.86 25.92 20.8 26.4 20.8C27.9467 20.8 29.2667 21.3467 30.36 22.44C31.4533 23.5333 32 24.8533 32 26.4C32 27.9467 31.4533 29.2667 30.36 30.36C29.2667 31.4533 27.9467 32 26.4 32C24.8533 32 23.5333 31.4533 22.44 30.36C21.3467 29.2667 20.8 27.9467 20.8 26.4C20.8 25.92 20.86 25.4533 20.98 25C21.1 24.5467 21.2667 24.12 21.48 23.72L16 18.24L10.52 23.72C10.7333 24.12 10.9 24.5467 11.02 25C11.14 25.4533 11.2 25.92 11.2 26.4C11.2 27.9467 10.6533 29.2667 9.56 30.36C8.46667 31.4533 7.14667 32 5.6 32ZM26.4 28.8C27.0667 28.8 27.6333 28.5667 28.1 28.1C28.5667 27.6333 28.8 27.0667 28.8 26.4C28.8 25.7333 28.5667 25.1667 28.1 24.7C27.6333 24.2333 27.0667 24 26.4 24C25.7333 24 25.1667 24.2333 24.7 24.7C24.2333 25.1667 24 25.7333 24 26.4C24 27.0667 24.2333 27.6333 24.7 28.1C25.1667 28.5667 25.7333 28.8 26.4 28.8ZM16 8C16.6667 8 17.2333 7.76667 17.7 7.3C18.1667 6.83333 18.4 6.26667 18.4 5.6C18.4 4.93333 18.1667 4.36667 17.7 3.9C17.2333 3.43333 16.6667 3.2 16 3.2C15.3333 3.2 14.7667 3.43333 14.3 3.9C13.8333 4.36667 13.6 4.93333 13.6 5.6C13.6 6.26667 13.8333 6.83333 14.3 7.3C14.7667 7.76667 15.3333 8 16 8ZM5.6 28.8C6.26667 28.8 6.83333 28.5667 7.3 28.1C7.76667 27.6333 8 27.0667 8 26.4C8 25.7333 7.76667 25.1667 7.3 24.7C6.83333 24.2333 6.26667 24 5.6 24C4.93333 24 4.36667 24.2333 3.9 24.7C3.43333 25.1667 3.2 25.7333 3.2 26.4C3.2 27.0667 3.43333 27.6333 3.9 28.1C4.36667 28.5667 4.93333 28.8 5.6 28.8Z" fill="white"/>
</svg>
