<svg width="21" height="20" viewBox="0 0 21 20" fill="none" xmlns="http://www.w3.org/2000/svg">
<g clip-path="url(#clip0_186_3278)">
<path d="M15.5 10.8332H11.3333V14.9998C11.3333 15.4582 10.9583 15.8332 10.5 15.8332C10.0416 15.8332 9.66663 15.4582 9.66663 14.9998V10.8332H5.49996C5.04163 10.8332 4.66663 10.4582 4.66663 9.99984C4.66663 9.5415 5.04163 9.1665 5.49996 9.1665H9.66663V4.99984C9.66663 4.5415 10.0416 4.1665 10.5 4.1665C10.9583 4.1665 11.3333 4.5415 11.3333 4.99984V9.1665H15.5C15.9583 9.1665 16.3333 9.5415 16.3333 9.99984C16.3333 10.4582 15.9583 10.8332 15.5 10.8332Z" fill="#878787"/>
</g>
<defs>
<clipPath id="clip0_186_3278">
<rect width="20" height="20" fill="white" transform="translate(0.5)"/>
</clipPath>
</defs>
</svg>
